<?xml version="1.0" standalone="no"?>
<!DOCTYPE svg PUBLIC "-//W3C//DTD SVG 20010904//EN"
 "http://www.w3.org/TR/2001/REC-SVG-20010904/DTD/svg10.dtd">
<svg version="1.0" xmlns="http://www.w3.org/2000/svg"
 width="906.000000pt" height="906.000000pt" viewBox="0 0 906.000000 906.000000"
 preserveAspectRatio="xMidYMid meet">
<metadata>
Created by potrace 1.14, written by Peter Selinger 2001-2017
</metadata>
<g transform="translate(0.000000,906.000000) scale(0.100000,-0.100000)"
fill="#000000" stroke="none">
<path d="M531 8932 c-24 -4 -86 -62 -186 -176 -33 -38 -71 -81 -85 -96 -14
-15 -54 -61 -90 -101 -36 -40 -80 -89 -98 -108 -73 -78 -69 -11 -68 -1031 1
-713 4 -920 14 -937 7 -13 10 -23 7 -23 -3 0 9 -15 27 -33 18 -18 62 -66 98
-106 36 -41 88 -98 116 -127 28 -30 50 -54 48 -54 -1 0 28 -31 64 -70 38 -39
78 -71 92 -74 14 -2 27 -5 30 -6 3 0 94 0 202 0 l197 1 0 -210 0 -210 -262 0
c-221 0 -263 -3 -276 -16 -14 -13 -15 -131 -13 -1057 3 -969 4 -1043 20 -1058
14 -13 55 -15 272 -15 l255 0 1 -83 c1 -45 4 -88 7 -96 3 -8 3 -17 0 -20 -8
-7 -6 -133 1 -145 4 -5 3 -12 -2 -15 -5 -3 -7 -18 -5 -33 l5 -28 -183 1 c-131
1 -191 -2 -214 -12 -43 -18 -492 -462 -500 -494 -3 -14 -4 -441 -3 -949 3
-727 6 -925 16 -929 6 -2 12 -8 12 -13 0 -11 32 -43 106 -106 27 -22 63 -54
80 -70 60 -56 190 -172 228 -205 22 -18 49 -43 60 -55 11 -13 25 -23 32 -23 7
0 14 -6 16 -12 6 -17 1843 -25 1898 -9 19 6 58 32 86 58 28 27 89 82 134 123
46 41 94 85 106 98 13 12 28 22 34 22 5 0 10 7 10 15 0 8 4 15 8 15 13 0 98
83 111 109 10 17 13 84 13 237 -1 118 2 214 6 215 26 4 475 3 481 -1 4 -3 7
-121 7 -262 0 -244 1 -259 20 -272 15 -12 65 -15 249 -15 127 0 423 0 658 -1
235 0 432 2 437 5 6 3 10 3 10 -2 0 -6 672 -9 745 -4 24 2 30 68 29 303 0 217
1 247 15 250 9 2 124 3 256 3 l240 -1 2 -213 c2 -247 3 -251 89 -326 67 -58
100 -89 169 -153 131 -121 209 -188 233 -199 20 -9 252 -12 950 -13 1016 0
947 -4 1017 61 70 65 117 108 181 164 38 33 83 74 100 90 18 17 51 46 74 65
66 54 130 122 125 131 -3 4 -2 10 3 12 4 3 8 421 10 928 1 807 0 926 -13 946
-9 13 -12 23 -8 23 5 0 -5 9 -22 20 -16 11 -27 20 -23 20 3 0 -19 25 -51 55
-32 30 -125 121 -207 201 -82 80 -160 152 -174 159 -18 9 -79 12 -218 11 -121
-1 -196 2 -200 9 -11 17 -8 396 3 404 6 4 124 7 263 7 221 -1 255 1 268 15 12
14 14 101 14 600 -2 1438 -2 1498 -20 1514 -13 12 -64 15 -275 17 l-259 3 -1
195 c-1 107 1 201 3 208 3 10 53 13 216 13 116 0 220 1 231 1 11 1 44 27 75
58 75 76 190 200 186 200 -2 0 24 28 56 63 84 87 131 144 143 172 7 15 10 342
9 936 -1 503 -2 924 -3 935 -1 18 -93 135 -166 210 -11 12 -54 58 -95 104 -41
46 -81 89 -87 96 -7 7 -13 18 -13 24 0 6 -4 8 -10 5 -5 -3 -10 -2 -10 4 0 8
-110 129 -121 132 -15 5 -1859 8 -1877 4 -19 -5 -158 -140 -421 -410 -32 -33
-64 -71 -71 -84 -8 -17 -13 -80 -14 -195 l-1 -170 -275 -1 c-151 -1 -280 0
-286 2 -7 3 -11 87 -11 259 0 185 -3 258 -12 267 -9 9 -107 12 -374 14 -199 1
-375 2 -392 2 -16 1 -47 0 -68 -2 -21 -1 -43 0 -49 4 -6 4 -21 4 -33 -1 -12
-5 -28 -4 -36 0 -7 5 -16 5 -19 0 -3 -5 -21 -5 -42 -1 -20 5 -39 6 -42 3 -6
-6 -89 -5 -121 1 -11 2 -34 1 -52 -4 -18 -4 -35 -3 -38 2 -3 4 -16 5 -28 1
-12 -5 -33 -7 -47 -5 -53 6 -169 5 -181 -3 -7 -4 -10 -3 -6 2 5 8 -54 10 -139
4 -16 -1 -33 -1 -39 0 -24 5 -42 5 -62 -2 -12 -4 -24 -4 -27 0 -2 4 -24 6 -48
5 -51 -3 -47 -3 -167 -2 -72 0 -97 -3 -109 -15 -13 -13 -15 -56 -16 -273 l-1
-258 -276 0 -277 0 2 165 c2 194 1 197 -90 290 -320 327 -386 391 -409 400
-25 9 -1798 11 -1864 2z"/>
</g>
</svg>
